<svg xmlns="http://www.w3.org/2000/svg" xml:space="preserve" fill-rule="evenodd" clip-rule="evenodd" image-rendering="optimizeQuality" shape-rendering="geometricPrecision" text-rendering="geometricPrecision" viewBox="0 0 944.7 1013.2">
    <style>
    path, circle {
      fill: #ffffff;
    }
  </style>
  <path  d="m629.5 793.3-6.5 1.8c.7-.4 1-1.3 2.2-3.4l8-14.9a364.7 364.7 0 0 0 20.5-47.7l5.8-17c1.9-5.7 3.5-11.5 5.2-17.5a439.2 439.2 0 0 0 15-76c.7-6.8 2-14.1 2-21 0-7.1.7-14.4.7-21.8l-.4-15.1a293 293 0 0 0-5.7-40.7c-1.8-8.2-4.3-16.2-7.2-23.5l-3.7-8c-.5-1.1-.6-1.6-1.2-2.7l-2.8-5a96.5 96.5 0 0 0-25.2-29 91.9 91.9 0 0 0-31-14.7c-10.7-3-22.9-3.7-34.8-3.7 0-3.8 2-11.3 2.8-15.4 5.9-28.9 10.3-71.7-2.2-98.4a84.3 84.3 0 0 0-24.1-29.3c-20.3-17.7-45-29.9-67.3-44.8-12.8-8.5-22.4-14.2-32.5-26.6a80 80 0 0 1-7.2-10.7l-2.1-3.7-7.3-16.4c-2.3-5.6-13-40.2-13-45.7h-.9c0 1.6-.8 4.4-1.3 6-4.7 16.7-8.6 33.5-15.7 49.2a86.4 86.4 0 0 1-22.7 31.9c-11 9.7-39.3 27-54 35.8a274.1 274.1 0 0 0-34.3 23.7 97.4 97.4 0 0 0-7.6 6.8c-1.4 1.4-2.5 2-4 3.5a67.4 67.4 0 0 0-18 32 112 112 0 0 0-3.8 25c0 2.5.1 5-.2 7.3-.2 1.4.2 4.1.2 6.4a227 227 0 0 0 4 39.1c.6 3.5 4.6 21.6 4.6 24.3H256a95.4 95.4 0 0 0-63 22.3c-.7.7-1 1.2-2 1.9a89.1 89.1 0 0 0-18.7 23.7l-2.7 5c-22.8 45.9-20.3 105.9-12.1 155.3a529 529 0 0 0 13.2 57.6c7.2 25.7 25.5 74.3 42.1 99-3.3-.7-25.5-17.7-29-20.6l-5.5-4.3-5.5-4.6c-3.8-3.1-10-8-13.4-11.5l-7.7-7c-6-5.7-20.3-19-24.7-24.4l-9.6-10.3c-3.4-3.2-6.2-7-9.4-10.4-3.2-3.5-6.2-7-9.1-10.7-6.3-7.8-11.4-13.3-17.2-22a120 120 0 0 1-13.2-26.6 56.2 56.2 0 0 1-.8-33.8c4.3-13 13.4-11.4 13.2-28 0-2.8.4-4 .4-6.6l4-78.5c.3-1.4.2-1.8.2-3.3.2-3.5 3.3-1.2 8.1-2.5 16.2-4 16.5-30.7 16.5-45 0-5 .1-22 1.6-26 1.8-4.8 4.4-9.6 7-14a282 282 0 0 1 13.5-20.8l11.2-16c7.6-11.3 14.8-22 19.7-35.1.6-1.6 1.3-3.3 1.7-5.3.5-2.1.6-3.8 1-6 4-18.8 12-36.5 23.6-51.9l12.3-15.4 1.7-1.7 1.6-2c2.4-2.5 4.5-4.3 6.6-7 1-1.2 2.5-2.1 3.7-3.3l12.2-11.5c5.7-5.5 18.4-15.3 25-20.2l27.8-20c12.4-9 28.4-18.7 41.5-27.3l24.9-16.4c2.7-1.8 5.6-3.4 8.2-5.4 2.7-2 5.4-3.7 8.3-5.7l24-17c3.9-3 8-5.9 11.7-9.1 1.2-1.2 2.5-2 3.7-3l9.1-8c1.8-1.5 3.8-3.3 5-5.1 2.3 1.5 8 7.2 11.2 9.8 26.5 22.5 55.9 40.8 84.8 60l33 21.8a478 478 0 0 1 40.3 29l4 3 18.6 15.6 2 1.6 3.6 3.3c3.5 3 16 15.7 18.8 19.3.6 1 1 1 1.7 1.9a164 164 0 0 1 23.4 34.6c3 6 5.7 13 7.7 19.8 2 6.6 2.5 13.1 3.7 17.3 5.8 20.1 21 39.3 33.1 56.3 7.8 11 15.7 22.5 20.3 35.1 1.3 3.8.7 15 .7 19.8 0 2.5.4 3.5.4 6.2 0 13.4.5 36.1 12.9 42.4 4.7 2.5 10.8 1.5 11.5 2.6.3.6.4 11 .7 13 .5 3.3.5 9 .6 12.8.1 6.8 1.2 19.2 1.6 26.1.2 4 0 9.3.6 13l1.3 26.3c-.1 10.2 4.2 12.4 9.3 18.4 4.4 5.3 6.3 16.1 6.3 24.4 0 19.1-14.4 42.1-23 53.3a263 263 0 0 1-15.3 18.2l-2.1 2.6-15.6 17.4c-3 3.7-17 17.5-21.1 21.6-1.8 1.8-3.3 3-5.1 4.7-1.7 1.6-3 3.1-4.8 4.5l-5.1 4.6c-1 .9-1.4 1.6-2.4 2.3l-44.8 35.8zm-.7 0v.1s-.1 0 0-.1z"/>
  <path  d="M821.6 737.6h-3c-1.4 0-1.5.3-2.8.4-63.6 3-109.9 10.2-164.5 46a607 607 0 0 0 34.7-29.5l6.2-5.8 18-18c4.1-4.1 19.3-20.5 22.6-24.7l24-30.1a110.3 110.3 0 0 0 13.7-27.4 58.2 58.2 0 0 0 .7-40c-.8-2.1-3-6.4-4.3-7.9-5.6-6.3-7.1-6.3-8.2-15.5l-1.2-22.5c-.3-4-.3-7.8-.4-11.7l-2.4-45c-.4-6.4.9-17-6.1-17.6-4.8-.4-6.9 0-10-2-5.3-3.5-6.6-10.9-7.6-16.7-1.5-9.5-1.4-18.4-1.5-28 0-2.3-.4-3-.4-5.4 0-11.2-.2-15.2-5.3-24.7l-16-25.6c-11.2-16.5-28-37-33-56.1-.4-1.7-.6-3.6-.8-5-2-10-4.4-18.6-8.6-27.3-1-2.1-3.1-5.8-3.6-8h18c0-3.5.5-6.2.7-9.4.6-15.1 4.2-38.2 5-54.4.3-3 .8-5.6.8-9-8-1.9-14-7.9-14-16.7v-29.2H691c0-5.6 1.3-18 2-24 .4-3.8 1-7.8 1.2-11.8.4-7.6 1.6-15.8 2.2-23.3.6-6.5 1.1-17.7 2.5-23.3a66 66 0 0 1 10.6-22c10.8-16.2 8-17.6 10.2-34.6l3.7-22c.3-1.6 1.5-8.7 3-9.8.1 1.4 1 3.6 1.4 5.3a226 226 0 0 1 6 38.7c.4 5.7 1.3 10.7 4.2 15.1l2.5 3.8c5 8 10.3 16 12.7 25.5 1.4 5.8 1.9 19.9 2.4 26.4l2.6 32.4c.2 1.1 0 2.2 0 3.3.7 6.9 1.7 13.4 1.7 20.3h17.4v26.8c0 5.7-1.3 9.7-4 12.8-4.4 5.5-6.1 4.4-10 6.3 1 3.7 2.8 38.7 3.6 45.9.3 2.7.6 6 .7 9 0 2.6.7 6.2.8 9 0 2.4.3 6.8.8 8.9h10.5c3.3 0 9.3-.8 9.3 1.1v29.2c0 9.8-8 18.8-15.9 20.6 0 4.5.7 8.2.7 12.4l.5 6.2.4 5.8c.5 3.4.5 6.3.7 9.5l1.6 17.9c.4 9 1.4 18.1 1.9 27.2l.4 6.2c.3 1.4.5 4.5.6 6 1 6.6-4.8 4.9 24.6 4.9v52.1c0 10.2-4.9 19.2-11.2 25.5-2 2-4 4-6.6 5.3l7.7 101.1c.3 2.8.3 4.7.4 7.4.1 1.6.4 5 .7 6.8l3.2 43.4c0 4.4 1 9.7 1.2 14 .3 6.2-.7 6.2 2.2 9.5a54.6 54.6 0 0 1 13.7 36.4c2 0 3.9-.2 5.8-.4z"/>
  <path  d="m630.2 796.6-6.5 1.8c-.7.4-1.8.5-4.5 1.2a290.2 290.2 0 0 1-71.5 8.7l-37-.8a697 697 0 0 1-49.8-5.3c-4.8-.7-9.3-1.5-14-2-4.7-.7-23.2-4.3-27.1-4.3 1.2 1.6 7.3 4.5 9.4 5.7l4.8 3 25.3 13.5 5 2.5 13.2 6.2 2.7 1.2a329.2 329.2 0 0 0 96 27.8 312 312 0 0 0 33.5 1.9c60.3 0 110.7-24.6 144.4-52.5 4.4-3.6 9.1-6.6 13.8-10 5.6-4 11.8-8 18-11.4l31.6-16.3c15.6-7.4 40-15.4 57.2-20.6 1.5-.4 3.2-.8 4.6-1.7-7.5-1.7-22.8-3.4-31.2-3.9-8.4-.4-17.2-.4-25.8-.4-1.8.2-3.8.4-5.7.4-63.7 3-109.9 10.2-164.5 46l-4 3a13.6 13.6 0 0 1-4 2.3l-4.5 1.4c-2 .6-7.4 2.4-9.4 2.6z"/>
  <path  d="M503.4 651.6c0 17.7 14.8 32 27.9 41.9a138 138 0 0 0 18.3 11.6l27.1 12.6c2.2.9 13.3 5 15 5.2l-8.3-10.7a77 77 0 0 1-7.2-11.9 66.8 66.8 0 0 1 .8-65.7 86 86 0 0 1 21.9-24l10.7-7.2c.6-.6.5-.2.8-1.1-7.3 0-19.9.8-27.5 1.6a169 169 0 0 0-40.3 8.7c-16.9 5.7-39.2 18.7-39.2 39z"/>
  <path d="M586 661.8c0 22.5 26.7 28.5 37.4 14.6 1.7-2.3 1.8-2 3.2-5a21.3 21.3 0 1 0-40.8-9.6h.1z"/>
  <path  d="M316.3 492.2c0 9.4-2.3 22.4-6.2 30.3a61.2 61.2 0 0 1-20.5 25.5 87.5 87.5 0 0 1-48.8 15.7A211.8 211.8 0 0 0 294 584c17.6 3.8 42 6.6 57-5.7 23.6-19.1 4.5-57.3-7.5-75.3l-7-10.1c-1.1-1.6-2.4-3-3.7-4.8l-11.8-14c-1.4-1.5-2.8-2.5-4.2-4.3-1-1.4-2.7-3.7-4.4-4 2 4.1 3.9 20.4 3.9 26.4z"/>
  <path  d="M251 508.1c0 6.6.3 9 4 14.6 9.5 13.6 33.3 10.7 37.9-7.7a21.6 21.6 0 0 0-7.7-22.1c-16-11.4-34.2 1.8-34.2 15.2z"/>
  <path  d="M472.3 551.3a35 35 0 0 0 3.5 17.9c7 12.3 20.7 17.9 34.6 17.9 12.3 0 17 0 29.4-2.9 15.8-3.6 31.5-9.2 45.7-16.2 2-1 7-2.7 8.2-4.3-10 0-23-3-30.3-5.7a74.5 74.5 0 0 1-20.5-11.5c-7.8-6.2-14-14-18.2-23a80 80 0 0 1-5.4-45.4l2.4-12.4a141 141 0 0 0-12 12.8l-7.7 9.1a189.9 189.9 0 0 0-17 25.3c-5.8 11.2-12.7 24-12.7 38.4z"/>
  <path  d="M540.8 509.7v.2a21.4 21.4 0 1 0 0-.2z"/>
  <path  d="M266.5 666.9a67 67 0 0 1-5 26c-2.7 7-6.1 12.9-10.3 19l-2 2.7-6.5 8.3c2.2-.2 5.3-1.7 7.4-2.4a246 246 0 0 0 30.8-13.2c8.1-4.2 22.7-13.2 29.4-19.5 1-.9 1.6-1.7 2.6-2.5 4.4-3.7 2.4-2.5 5-5.1 5.1-5 12.8-16.8 12.8-26.5 0-7.6-.6-11.6-4.9-18-9.8-15-33-24.2-49.6-27.6l-33.8-5-18.7-.8c.8 1.2 5.4 3.6 7.8 5.4a92 92 0 0 1 21 19.5 63.4 63.4 0 0 1 14 39.6v.1z"/>
  <path  d="M205.8 661.8v.8a21.4 21.4 0 1 0 21.4-21.4h-.8a21.5 21.5 0 0 0-20.6 20.6z"/>
  <path  d="M417.5 547.8a30 30 0 0 0 17.2-4.6c2.1-1.3 3.8-2.5 5.6-4a87 87 0 0 0 21.1-28.8c4.2-8.4 7-16 9.8-24.8l5.2-19.6 1.7-8.1 1.6-8.6-5.6 6.1a99.3 99.3 0 0 1-19.3 16 73.9 73.9 0 0 1-25.2 10 69.3 69.3 0 0 1-50.8-12.1l-3.3-2.5-3.2-2.6c-5.6-4.6-7.5-7.2-11.7-11.6-1.4-1.4-1.5-2.2-3-3.3l3 16.4a208 208 0 0 0 15 44.7 100 100 0 0 0 16 23.7c6.7 6.8 15 13.7 25.9 13.7z"/>
  <path  d="M398.8 442.3v2c0 21.1 30.8 29.3 40.7 8 9.9-21.2-17.8-40.6-34.2-24a20 20 0 0 0-6.5 14z"/>
  <circle cx="415.9" cy="637.7" r="58.6"/>
  <path d="M168.4 915v95.7c0 1.6.8 2.4 2.4 2.4h17.8c1.6 0 2.4-1.2 2.4-2.8l-.3-39.6c0-2-.4-3.3-.4-5.8 0-5.6-.7-12.3-.7-17.8.9.6 2.3 4.5 2.7 5.5a514.8 514.8 0 0 0 15.9 33.7c3 6 1 4.6 18.7 4.6 1.6 0 5-8 6.1-10.3 1-1.8 1.8-3.6 2.7-5.5l11.6-25.3c.4-1 .7-2.1 1.4-2.7l-.4 11.9c-.3 1.8-.3 3.6-.3 5.9 0 2.5-.3 3.6-.3 5.8l-.4 39.6c0 1.3 1 2.8 2 2.8h18.2c1.6 0 2.4-.8 2.4-2.4V915c0-1.6-.8-2.4-2.4-2.4h-20.2c-2.6 0-3.6 3.5-4.6 5.6l-3.6 6.7c-.5 1.1-1 2.3-1.7 3.4L234 935l-1.8 3.3-6.5 14c-1 2.5-2.2 4.8-3.2 7.1L221 963c-.5 1.3-1 3-2 3.6l-12.6-28-1.7-3.1-1.7-3.4c-1.1-2.3-2.1-4.6-3.5-6.8-2.2-3.7-5.4-12.7-7.8-12.7h-20.8c-1.6 0-2.4.8-2.4 2.4zm184.2.4v94.6c0 1.2.3 1.9.7 2.7 3.3.8 15.2.4 19.5.4 1.6 0 2.4-.8 2.4-2.4l-1.4-63.6c1 .8 4.5 9.7 5.2 11.2l14.8 30.6c.6 1.2 1 2 2.5 2 17.3 0 15.2 1.5 18.3-4.7a943 943 0 0 0 15.7-33.5c.5-1.3 1.8-5 2.6-5.6l-.4 12.6c-.7 6.7-1 33.3-1 39v11.6c0 1.3 1 2.8 2 2.8h18.9c1 0 1.7-1.3 1.7-2.4V915c0-1.6-.8-2.4-2.4-2.4h-20.2c-1.7 0-2 1-2.7 2-.7 1.2-1.2 2-1.8 3.4l-14 27a269 269 0 0 0-9.1 21.6l-10-21.2c-3.4-7.6-9.7-18.8-13.8-27.1-.7-1.3-1-2.2-1.8-3.4-.6-1.2-1-2.3-2.8-2.3H355c-1.6 0-2.4 1.2-2.4 2.7zm332.8-.4v95.7c0 1.1.6 2.4 1.7 2.4h18.8c3 0 2-9.9 2-13.7 0-4.3.3-9.4-.2-13-.5-3.6-.1-9.4-.4-13l-.4-9.5c0-1.5-.3-1.5-.3-3.1l-.4-6.1c-.2-1.6-.7-4.6-.7-6.2.4.4.2.1.6.8l.6 1.1 4.9 10.8c8 16 11.6 21.9 20.6 36.8l7.1 12c.8 1.4 1.4 3 3.5 3h19.8c1.1 0 1.7-1.2 1.7-2.3V915c0-1.6-.8-2.4-2.4-2.4h-17.7c-1.7 0-2.4 1.2-2.4 2.7v32.5c.4 3.2 0 6.8.3 10.2l1.4 19.9c-.8-.6-8-16-8.5-16.9l-11-20.7c-3.5-6.8-8.8-15.4-12.5-22.3l-1.2-2.3c-1-1.4-1.1-3-3.4-3h-19.1c-1.6 0-2.4.7-2.4 2.3zm-91.9 76.9h-13v-58.1c6.8 0 17.2-.8 22.6 1.4a8 8 0 0 1 2.4 1.3c4.3 3.1 5.7 7.7 5.7 14v24.3c0 12.4-5.3 17-17.7 17zm-35.9-75.2v92.3c0 1.7.4 4 2 4h38c5.6 0 11.5-1.2 15.6-2.7a29.4 29.4 0 0 0 15.5-12.2 43.4 43.4 0 0 0 5.8-22v-26.3c0-5.4-1.2-11.8-2.8-15.7-5.5-14-17.4-21.5-34.5-21.5h-37.6c-1.6 0-2 2.3-2 4.1zm310.2-.7v93.6c0 1.6.7 3.5 2 3.5h18.5c1.6 0 2.4-.8 2.4-2.4V973h31.1v36.6c0 1.5.7 3.4 2 3.4h18.5c1.6 0 2.4-.8 2.4-2.4V915c0-1.6-.8-2.4-2.4-2.4H924c-1.4 0-2 2-2 3.4v36h-31.2v-37c0-1.6-.8-2.4-2.4-2.4H870c-1.4 0-2 2-2 3.4zm-51.9 21.2c1 .7 1 1.7 1.6 4.2l9.7 32.7H805c.9-1.9 10.3-34.2 10.9-36.9zm-45.8 74.2c0 .9.3 1.7 1.4 1.7h19.8c2.8 0 3.6-4.9 4.7-8.7 1-3.6 2.3-6.9 3.2-10.5h34.1c.2 1.8 2.3 7.9 3 10.2.7 2.7 2 9 4.2 9h20.2c.7 0 1.7-1 1.7-1.4 0-1-3.5-11.2-4.1-12.6-1.6-4-2.8-8.4-4.2-12.5l-8.7-25.2-14.8-44c-.7-2-1.1-4.8-3.8-4.8h-21.5c-2.3 0-2.9 2.7-3.5 4.7l-6.4 18.9-8.5 25-12.7 37.5c-.8 2.3-4 10.5-4 12.7zm-264.4-74.2c1 .8 1 2 1.6 4.2l6.9 23.2 1.4 4.7c.3 1.1 1.2 3.7 1.3 4.8h-21.8c0-1.5.7-3 1.1-4.6l1.4-4.5 8-27.8zm-45.8 74.2c0 1.2.5 1.7 2 1.7h19.2c2.2 0 2.6-1.7 3-3.4l4.8-15.8h34.2l4.6 15.6c.6 1.9 1 3.6 3.2 3.6h19.5c.7 0 1.7-1 1.7-1.4 0-1.3-3.4-10.9-4-12.7l-4.3-12.5-23.5-69c-.6-2-1-4.9-3.7-4.9h-21.9c-2.4 0-4.4 8.4-5.3 11l-25.5 75-2 6.1c-.6 1.4-2 5.2-2 6.6zM121 962.8h-14v-29.3c8.8 0 19.1-1.3 25 3.2 6 4.6 5.6 18.8 0 23a18 18 0 0 1-11 3.1zm-37-46v92.2c0 1.7.4 4 2.1 4h18.5c1.9 0 2.3-1.5 2.3-3.3V984c17.2 0 29.3 1.6 41.8-8.5a30 30 0 0 0 7.5-10.2c3.4-7.9 3.4-11.6 3.4-19.9a33 33 0 0 0-33.5-32.8H86c-1.7 0-2 2.4-2 4.1zm-47.4 46h-14v-29.3c8 0 20.4-1.3 25.5 3.5a9.7 9.7 0 0 1 3 4.5c1.3 4 1.5 9.1.1 13.1-2.1 6-7.7 8.3-14.6 8.3zM0 915v95.7c0 1.1.6 2.4 1.7 2.4h19.1c1.1 0 1.7-1.3 1.7-2.4V984c15.7 0 32 1.6 42.7-9.3 11-11 12.7-26.9 7.7-41.4a30.6 30.6 0 0 0-17.1-17.7c-3.8-1.6-9.2-3-14.5-3h-39c-1.5 0-2.3.8-2.3 2.4zm285.6-.7v97c0 .9 1 1.8 1.7 1.8h19.2c.8 0 1.7-1 1.7-1.7V915c0-1.6-.8-2.4-2.4-2.4h-18.5c-.8 0-1.7 1-1.7 1.7zm361.5.7v95.7c0 1.1.6 2.4 1.7 2.4H668c.8 0 1.7-1 1.7-1.7v-97c0-.9-1-1.8-1.7-1.8h-18.5c-1.6 0-2.4.8-2.4 2.4z" class="fil14"/>
</svg>
